<svg xmlns="http://www.w3.org/2000/svg" viewBox="0 0 12.37 20.61">
    <defs>
        <style>.cls-1{fill:#0092ff;}</style>
    </defs>
    <title>Asset 3</title>
    <g id="Layer_2" data-name="Layer 2">
        <g id="Layer_1-2" data-name="Layer 1">
            <path class="cls-1" d="M7.47,18.55a1.3,1.3,0,0,0-1.29-1.29,1.27,1.27,0,0,0-.91.38,1.24,1.24,0,0,0-.38.91,1.25,1.25,0,0,0,.38.91,1.27,1.27,0,0,0,.91.38,1.24,1.24,0,0,0,.91-.38A1.25,1.25,0,0,0,7.47,18.55ZM10.82,16V4.64a.53.53,0,0,0-.15-.37.51.51,0,0,0-.37-.15H2.06a.49.49,0,0,0-.36.15.53.53,0,0,0-.15.37V16a.49.49,0,0,0,.15.36.46.46,0,0,0,.36.16H10.3a.49.49,0,0,0,.37-.16A.49.49,0,0,0,10.82,16ZM7.73,2.32a.23.23,0,0,0-.26-.26H4.89c-.17,0-.25.09-.25.26s.08.26.25.26H7.47A.23.23,0,0,0,7.73,2.32Zm4.64-.26V18.55A2,2,0,0,1,11.75,20a2,2,0,0,1-1.45.61H2.06A2,2,0,0,1,.61,20,2,2,0,0,1,0,18.55V2.06A2,2,0,0,1,.61.61,2,2,0,0,1,2.06,0H10.3a2,2,0,0,1,1.45.61A2,2,0,0,1,12.37,2.06Z" />
        </g>
    </g>
</svg>