<svg xmlns="http://www.w3.org/2000/svg" viewBox="0 0 11.25 8.66">
    <defs>
        <style>.cls-1{fill:#0092ff;}</style>
    </defs>
    <title>Asset 2</title>
    <g id="Layer_2" data-name="Layer 2">
        <g id="Layer_1-2" data-name="Layer 1">
            <path class="cls-1" d="M10.71,3.79H1.83L4.71.92A.54.54,0,0,0,4,.16L.16,4h0A.27.27,0,0,0,.09,4s0,0,0,0l0,0s0,0,0,.06,0,0,0,0a.41.41,0,0,0,0,.11H0a.34.34,0,0,0,0,.1s0,0,0,.05,0,0,0,0l0,.06,0,0,.07.09L4,8.5a.54.54,0,1,0,.76-.76L1.83,4.86h8.88a.54.54,0,1,0,0-1.07Z" />
        </g>
    </g>
</svg>